PathFileType	4	(X/Y/Z)	RBDS021\RBDS021runT35.trc
DataRate	CameraRate	NumFrames	NumMarkers	Units	OrigDataRate	OrigDataStartFrame	OrigNumFrames
150.000000	150.000000	4	33	mm	150.000000	2812	4500
Frame#	Time	L.ASIS			L.Heel.Bottom			L.Heel.Lateral			L.Heel.Top			L.Iliac.Crest			L.MT1			L.MT5			L.PSIS			L.Shank.Bottom.Lateral			L.Shank.Bottom.Medial			L.Shank.Top.Lateral			L.Shank.Top.Medial			L.Thigh.Bottom.Lateral			L.Thigh.Bottom.Medial			L.Thigh.Top.Lateral			L.Thigh.Top.Medial			R.ASIS			R.ASY			R.Heel.Bottom			R.Heel.Lateral			R.Heel.Top			R.Iliac.Crest			R.MT1			R.MT5			R.PSIS			R.Shank.Bottom.Lateral			R.Shank.Bottom.Medial			R.Shank.Top.Lateral			R.Shank.Top.Medial			R.Thigh.Bottom.Lateral			R.Thigh.Bottom.Medial			R.Thigh.Top.Lateral			R.Thigh.Top.Medial			
		X1	Y1	Z1	X2	Y2	Z2	X3	Y3	Z3	X4	Y4	Z4	X5	Y5	Z5	X6	Y6	Z6	X7	Y7	Z7	X8	Y8	Z8	X9	Y9	Z9	X10	Y10	Z10	X11	Y11	Z11	X12	Y12	Z12	X13	Y13	Z13	X14	Y14	Z14	X15	Y15	Z15	X16	Y16	Z16	X17	Y17	Z17	X18	Y18	Z18	X19	Y19	Z19	X20	Y20	Z20	X21	Y21	Z21	X22	Y22	Z22	X23	Y23	Z23	X24	Y24	Z24	X25	Y25	Z25	X26	Y26	Z26	X27	Y27	Z27	X28	Y28	Z28	X29	Y29	Z29	X30	Y30	Z30	X31	Y31	Z31	X32	Y32	Z32	X33	Y33	Z33	

2813	18.74666666666667	2104.739527068039	1003.956743310993	931.0705788720724	2186.671751561777	110.5781850199357	1013.96508459293	2206.885021429987	121.3276196170346	961.129794122053	2195.908774032981	155.5395210017966	1002.248541688306	2028.975145749955	1100.370786796138	886.864616489217	2404.222048904849	120.0815098729136	1011.023500325863	2354.685888793966	91.97481057946194	910.6718801029705	1926.52779259636	1054.575634431714	1002.342392024851	2243.882929329219	246.9703477394144	922.5268489632626	2210.035642425881	252.1823820244078	966.3640404066066	2232.186706299729	324.0899676711621	903.9004360464528	2198.9564277553	329.7495219743743	945.9452785619193	2179.773269989172	689.0887425685019	867.4939012024906	2125.534213284649	657.8741477405106	900.1756794765425	2116.324103289458	777.1202321902447	849.607598062395	2063.226783845636	746.8972961870634	879.5383110647908	2104.699271013219	985.5154051629959	1143.435510449106	1566.304960712446	157.769388282569	1112.24663301831	1454.26003029999	286.3877467698232	1031.466164700521	1458.823058205046	273.9233014472289	1085.868238571386	1491.405665818638	301.9012999880343	1052.474568554844	2086.107059578218	1061.716355065706	1178.121605594036	1572.589794607292	109.5713729376539	1059.757763610269	1504.071921835302	129.5001324714469	1145.966787747688	1935.701702215289	1055.838823147231	1081.126770251956	1556.953726096129	333.0233045335559	1131.285156359283	1549.8342518948	350.9502134744843	1083.610221876386	1601.877635601747	402.6781434825733	1149.031548777521	1587.324914586838	420.0284598629074	1100.690097668343	1869.792092246829	689.0476636899149	1191.45736847671	1815.925372105852	720.6863128134072	1153.043942170473	1911.314666250903	788.8821596203651	1209.804920700804	1861.428491059789	818.0497508239041	1170.78357599601	
2814	18.75333333333333	2105.088821555227	1004.336104649685	930.7938111406323	2205.612437980419	103.7717312315561	1013.662247752627	2226.033638315568	114.3928717701164	960.8956830339536	2213.051432095818	148.8751957067294	1001.307015509522	2030.627733249046	1100.963417084781	887.0891521812857	2422.840777365433	122.5668892501486	1012.585397007679	2375.64400351875	90.07241816271984	912.3625437793831	1927.61686221721	1055.052193828357	1001.94843789294	2256.297456680436	241.9047795537555	921.8533026582074	2222.263296992517	245.42440780376	965.7346995220795	2240.27589095603	318.1635653488511	903.032101351106	2206.812228294039	322.1808170033636	945.1175318170103	2174.523169020752	683.9285435488504	866.415102961786	2120.607224517164	654.4310243972393	900.9929950315419	2112.567193807849	773.0784389520471	848.4990638108097	2059.674117920467	744.4640240104012	880.2422610998419	2106.108302111083	986.9989400878073	1142.589300698983	1552.378430597758	170.120088612431	1108.766651800426	1445.050177245585	302.6575729178603	1028.490777054763	1448.705133200247	289.5441219919353	1082.751789999165	1482.421073404944	316.811278123061	1049.847011743561	2086.61734617868	1065.372066984152	1177.018581691554	1558.043765217552	122.0687219968932	1056.305742986292	1489.226171049532	143.1483303914532	1141.965101467301	1936.829618266402	1057.32309933367	1080.850041282649	1549.348579070414	344.8649639180278	1129.149192056524	1543.194716542382	363.5705195060038	1081.659212002005	1597.111529527699	412.3302836179406	1147.687687692127	1583.69006793729	430.7660460234723	1099.479441372369	1872.763597252985	689.6484991610569	1192.551023972236	1817.953894097029	721.338026417075	1155.434458207715	1914.168314571844	789.4498857109214	1210.935453067054	1863.30476132149	818.6924377604442	1173.333849901081	
2815	18.76	2105.172562151513	1004.253156851975	930.2862686538585	2221.512121381968	98.33464184806675	1013.808389729558	2242.115747167381	108.4977627746722	961.052004760537	2227.479510702481	143.3915090819702	1000.652094528124	2031.888747461988	1100.699091397877	886.9846567184732	2438.195378930447	124.5533025037355	1013.865562565598	2392.954785030463	87.90344851341852	914.0802590540573	1928.520111044054	1054.987135665002	1001.408546254319	2266.405601613219	237.2815082736491	921.3290114551691	2232.329404271571	239.2822887799761	965.3184235095622	2246.484090783869	312.6317866908303	902.4443545353988	2212.917237377243	315.173298954473	944.6267443794173	2169.245781168236	678.6271575666002	865.2999264735342	2115.665720948334	650.8593910116692	901.7293745724891	2108.815087420317	768.8639194058485	847.2485579278532	2056.165004211819	741.844923357488	880.7147105806026	2107.50998296593	988.2351416791894	1141.720081833458	1539.212701314825	182.8170565445729	1104.767367640437	1436.729613952524	319.3060075048863	1025.480565512581	1439.529466473562	305.4342317213235	1079.550010716302	1474.276194569894	332.0253008730964	1047.117291753587	2086.608461620262	1068.530097211788	1176.157855543162	1544.115136214285	135.1931517494017	1052.174884171675	1475.202244403636	157.298036029341	1137.578947357734	1937.752877004295	1058.169901671977	1080.401283082451	1542.743918181401	356.8516956164624	1126.797410602484	1537.672783544325	376.364947276445	1079.514434508963	1593.450567238432	421.8542143858897	1146.248429002221	1581.301098532631	441.4112345531628	1098.193035825894	1876.435236202066	689.3023748971275	1193.732725796695	1820.668122766356	720.7405234213176	1157.686790003125	1917.313373958202	789.2741800071709	1211.944986915973	1865.447797031423	818.3189249582807	1175.590143795392	
2816	18.76666666666667	2105.058897910853	1003.727338533024	929.5853855734485	2234.045937835834	94.01956854346565	1014.549173429543	2254.73926167438	103.3992308557864	961.7220042614676	2238.886464086157	138.8680574566398	1000.428498714743	2032.772042526933	1099.593777204756	886.5739061603538	2450.090881615934	125.6326490259801	1014.831967648965	2406.232350009718	85.15352472213691	915.8054425541977	1929.262313439998	1054.377574224914	1000.776262407907	2273.938371594836	232.9020094089746	921.0274740401046	2240.009963605171	233.613670813356	965.2305672264927	2250.628362514409	307.3721985624873	902.1971932432772	2217.134565276521	308.6573010287814	944.5785854176347	2164.093580566867	673.3408002449664	864.2080006411386	2110.808891362605	647.248899796824	902.323648811019	2105.194772796923	764.6215269476502	845.9545828667608	2052.786320050043	739.1321401973807	880.9634628138032	2108.899747948296	989.1999787681372	1140.885328213245	1527.015696388281	195.7418676747193	1100.445412844422	1429.663398975561	336.3209165184381	1022.568282982091	1431.644031278096	321.5966033133618	1076.406987519691	1467.35685399474	347.4933968323359	1044.418289372173	2086.167075139351	1071.085591115162	1175.57650190259	1530.95985534529	148.7620294126017	1047.56857886536	1462.181921454775	171.8817207250232	1132.991221813575	1938.528296738883	1058.34634896308	1079.8257421105	1537.361690780759	368.8801564683241	1124.337480645055	1533.486991740584	389.1580750175118	1077.26100555614	1591.02914816475	431.1865570328475	1144.763025935041	1580.274148924699	451.824109376067	1096.862227990546	1880.664968826962	688.0640767472079	1194.929738346528	1824.008689283253	718.9521816289166	1159.630770166935	1920.640937704624	788.3955857573462	1212.757520793601	1867.834013771249	816.9711340146602	1177.363980913682	
